<?xml version="1.0" encoding="utf-8"?>
<!-- Generator: Adobe Illustrator 28.1.0, SVG Export Plug-In . SVG Version: 6.00 Build 0)  -->
<svg version="1.1" id="Livello_1" xmlns="http://www.w3.org/2000/svg" xmlns:xlink="http://www.w3.org/1999/xlink" x="0px" y="0px"
	 viewBox="0 0 97 97" style="enable-background:new 0 0 97 97;" xml:space="preserve">
<path id="path2476" style="fill-rule:evenodd;clip-rule:evenodd;fill:#CC0000;" d="M27.1,95.9c-12.3-3.2-22.2-13.2-26-26.1
	c-1.2-4.1-1.6-33.2-0.5-39.3C3,16.9,12.1,6.2,25.2,1.6C30.9,0,36.9,0.1,46.8,0c20.3-0.2,22.4,0,29.5,3.6c12,6,18.9,16.1,20.3,29.9
	c0.8,7.7,0.3,31.4-0.8,35.7C92.6,82.3,81.9,93,69,96.1C63.7,97.4,32.2,97.2,27.1,95.9L27.1,95.9z M68.1,92.9
	c12.2-3.1,21.3-12.3,24.4-24.4c1.5-5.8,1.5-34.3,0-40.1C89.4,16.2,79.1,6.2,66.9,3.7c-5.4-1.1-32-1.1-37.2,0
	C17.5,6.3,7.7,15.9,4.1,28.6c-1.3,4.8-1.4,34.8,0,39.7c3.3,12.3,13,22,24.8,24.8C33.8,94.3,63.3,94.2,68.1,92.9L68.1,92.9z
	 M41.8,85.1l-0.3-25.6c-4.3-2.1-8.5-4.4-12.9-6.2l-0.1,15.3l-7,3.8l-7.1-3.6c0.3-13.6,0-26,0.3-39.2l33.7,17.2
	c11.3-5.5,22.1-12,33.6-17.2l0.4,39l-7,3.8L68,68.5l0-15.3l-12.5,6.2L55.3,85l-7,3.7L41.8,85.1L41.8,85.1z M48.2,8.3
	c21.2-0.1,22,31.4,0.8,32.2C27.2,40.5,26.7,9.1,48.2,8.3L48.2,8.3z M45.3,34.8c-1.5-2.3-3.1-5.1-3.6-7.9c-0.3-1.9-0.4-1.9-2.8-1.9
	c-1.3,0-1.8,0.1-2.6,0.1c-0.1,0.8,0.3,1.5,0.7,3c1.2,3.9,5.1,7.3,9.9,8.4C47,36.6,46.2,35.9,45.3,34.8L45.3,34.8z M53.2,35.4
	c3.5-1.5,6.3-4.8,7.1-8.8l0.4-1.6h-2.5c-2.5,0-2.5,0-2.9,1.9c-0.4,2.3-2.4,6.5-3.8,8c-0.6,0.8-1.5,1.5-1.2,1.6
	C50.4,36.7,52,35.9,53.2,35.4L53.2,35.4z M48,25.1h-2.8h-2.8l0.4,1.6c0.6,2.6,4.2,9.2,5.1,9.2L48,25.1L48,25.1z M52.5,31
	c0.5-1,1.2-2.8,1.4-3.9l0.5-2.1h-2.7H49l0,10.8l1.3-1.5C51,33.5,52,32,52.5,31L52.5,31z M41.3,23c0-1.8,1.9-6.2,3.5-8.3
	c1.6-2.1,1.7-2.3,0.6-2c-4,1.2-8,5.3-8.7,9.2l-0.3,1.6h2.6C40.7,23.6,41.3,23.5,41.3,23L41.3,23z M48,18.2l0-5.4l-1.3,1.5
	c-1.6,1.9-3.5,5.6-3.9,7.7l-0.4,1.6h2.8H48L48,18.2L48,18.2z M53.9,21.4c-0.5-2.4-2.5-5.8-3.9-7.4l-1.1-1.3l0.1,5.7v5.1h2.7h2.7
	L53.9,21.4L53.9,21.4z M60.3,22.2c-1.1-4.5-4.4-8.1-8.7-9.4c-1.1-0.3-1-0.2,0.6,2.3c1,1.5,2.2,4,2.6,5.6l0.8,2.9h2.5
	C60.6,23.6,60.6,23.5,60.3,22.2L60.3,22.2z"/>
</svg>
