<?xml version="1.0" encoding="utf-8"?>
<svg width="102.21449px" height="120.27851px" viewBox="0 0 102.21449 120.27851" version="1.1" xmlns:xlink="http://www.w3.org/1999/xlink" xmlns="http://www.w3.org/2000/svg">
  <path d="M40.961 114.708L40.5605 76.4603C34.1479 73.309 27.828 69.9441 21.2003 67.259L21.0442 90.0707L10.6054 95.7017L0 90.3678C0.380432 70.0899 0.00317383 51.5127 0.457977 31.8393L51.078 57.4512C68.0813 49.2917 84.3429 39.504 101.586 31.8393L102.214 90.0707L91.653 95.7679L80.4252 90.0113L80.4188 67.1255L61.654 76.4603L61.2535 114.682L50.7315 120.278L40.961 114.708L40.961 114.708ZM50.6588 0.000267029C82.464 -0.129021 83.6361 46.8691 51.8588 48.1193C19.0596 48.1561 18.3415 1.2567 50.6588 0.000267029L50.6588 0.000267029ZM46.3173 39.671C44.0141 36.1903 41.7051 32.0673 40.9367 27.8986C40.4209 25.1005 40.395 24.9933 36.7436 25.0839C34.7309 25.1338 34.0976 25.1777 32.8845 25.177C32.6708 26.424 33.2765 27.4767 33.9416 29.6938C35.7047 35.5709 41.5407 40.5349 48.7425 42.2833C48.8886 42.3188 47.6599 41.1981 46.3173 39.671L46.3173 39.671ZM58.0835 40.5851C63.3983 38.3608 67.4754 33.3621 68.7373 27.5234L69.2645 25.0839L65.481 25.0839C61.6988 25.0839 61.6973 25.0849 61.1977 27.8987C60.5875 31.3356 57.5708 37.6165 55.4295 39.9083C54.5303 41.1202 53.1099 42.2086 53.5558 42.3223C54.0018 42.436 56.3141 41.3255 58.0835 40.5851L58.0835 40.5851ZM50.3557 25.0839L46.1623 25.0839L41.9689 25.0839L42.4961 27.5234C43.3483 31.4663 48.8441 41.2958 50.218 41.2958L50.3557 25.0839L50.3557 25.0839ZM57.1423 33.9702C57.936 32.4587 58.8961 29.841 59.2759 28.153L59.9664 25.0839L55.9126 25.0839L51.8588 25.0839L51.9129 41.2219L53.806 38.9701C54.8472 37.7316 56.3486 35.4816 57.1423 33.9702L57.1423 33.9702ZM40.3353 22.042C40.3353 19.3218 43.1739 12.7522 45.5345 9.66352C47.9718 6.47466 48.0473 6.23082 46.4544 6.6942C40.4308 8.44635 34.5049 14.6482 33.3654 20.3926L32.8815 22.8321L36.7333 22.8321C39.4205 22.8321 40.3353 22.7324 40.3353 22.042L40.3353 22.042ZM50.3286 14.763L50.3016 6.69402L48.4073 8.94583C45.9799 11.8313 43.1739 17.2658 42.497 20.3926L41.9689 22.8321L46.1623 22.8321L50.3557 22.8321L50.3286 14.763L50.3286 14.763ZM59.2519 19.642C58.4367 16.0022 55.5151 10.9681 53.4399 8.66692L51.7589 6.73886L51.8588 15.2097L51.8588 22.8321L55.9126 22.8321L59.9664 22.8321L59.2519 19.642L59.2519 19.642ZM68.7928 20.7679C67.1073 14.015 62.1721 8.70164 55.744 6.71935C54.1143 6.21675 54.182 6.45434 56.7176 10.1357C58.2164 12.3117 59.9901 16.0586 60.6592 18.4621L61.8757 22.8321L65.5919 22.8321C69.2697 22.8321 69.3027 22.8108 68.7928 20.7679L68.7928 20.7679Z" id="Shape" fill="#184295" fill-rule="evenodd" stroke="none" />
</svg>