<?xml version="1.0" encoding="UTF-8"?>
<svg xmlns="http://www.w3.org/2000/svg" viewBox="0 0 1024 1024">
  <!--
    Mensa Italia mark — M-with-globe.
    Original artwork is 86×86 (Mensa Italia brand asset). We center it inside
    a 1024×1024 canvas at scale 9 so the glyph occupies ~755pt (~74% of the
    canvas), leaving safe margin for the Liquid Glass squircle mask.
    Fill: white. Icon Composer applies system Liquid Glass on top.
  -->
  <g transform="translate(125,125) scale(9)" fill="#FFFFFF">
    <path d="M6.5,23.03v41.69l7.81,4.73,7.81-4.73v-16.96l13.43,7.76v25.99l7.48,4.43,7.48-4.2v-26.22s13.87-7.76,13.87-7.76v16.96l7.56,4.73,7.56-4.73V23.03s-36.46,19.45-36.46,19.45L6.5,23.03Z" fill-rule="evenodd"/>
    <path d="M43,.05C33.35.05,25.5,7.84,25.5,17.42s7.85,17.36,17.5,17.36,17.5-7.79,17.5-17.36S52.65.05,43,.05ZM42.45,4.68s.11-.01.17-.01v12.25h-5.77c.07-3.73,1.17-7.09,2.87-9.52.81-1.14,1.73-2.06,2.73-2.72ZM40.58,4.89c-.71.61-1.35,1.34-1.92,2.15-1.8,2.57-2.93,6.04-3,9.88h-5.53c.23-5.99,4.65-10.94,10.45-12.03ZM30.13,17.91h5.53c.1,3.79,1.22,7.21,3,9.76.62.88,1.32,1.65,2.09,2.3-5.88-1.02-10.4-6.01-10.62-12.06ZM39.72,27.31c-1.69-2.4-2.77-5.72-2.87-9.4h5.77v12.23c-1.07-.67-2.05-1.63-2.9-2.83ZM55.87,16.92h-5.31c-.07-3.84-1.19-7.31-2.99-9.88-.56-.79-1.18-1.5-1.87-2.09,5.66,1.19,9.95,6.08,10.17,11.97ZM43.61,4.68c.07,0,.13,0,.19,0,.99.66,1.91,1.58,2.71,2.71,1.7,2.43,2.8,5.79,2.87,9.52h-5.77V4.68ZM43.61,30.14v-12.23h5.77c-.1,3.68-1.19,7-2.87,9.4-.85,1.2-1.84,2.16-2.9,2.83ZM45.52,29.92c.76-.62,1.44-1.39,2.05-2.25,1.78-2.55,2.89-5.97,2.99-9.76h5.31c-.22,5.96-4.6,10.88-10.35,12.01Z"/>
  </g>
</svg>
